# xmcd
#
# Track frame offsets:
#	150
#	18329
#	35622
#	51988
#	65258
#	80775
#	96657
#	110685
#	122779
#
# Disc length: 2058 seconds
#
# Revision: 1
# Processed by: cddbd v1.5.2PL0 Copyright (c) Steve Scherf et al.
# Submitted via: audiograbber 1.83.01
#
DISCID=80080809
DTITLE=Zion Music Group - Compilation 29
DYEAR=1900
DGENRE=Gospel
TTITLE0=The Gann Brothers - Upper Room
TTITLE1=The Toney Brothers - Mercy Comes Down
TTITLE2=The Lesters - The Middle Man
TTITLE3=Tammy Jones Robinette - I Know That Man
TTITLE4=Randy Swift - Hope Is Alive
TTITLE5=The Eberhardts - The City Of His Child
TTITLE6=Still Water - I'm Setting Sail
TTITLE7=Tim Thomas Trio - Blessed Are They
TTITLE8=Curtis Hyler and Jubilation - Wait A Little While
EXTD=
EXTT0=
EXTT1=
EXTT2=
EXTT3=
EXTT4=
EXTT5=
EXTT6=
EXTT7=
EXTT8=
PLAYORDER=
